HIERARCHY
ROOT Hips
{
	OFFSET 0.000000 71.427986 0.000000
	CHANNELS 6 Xposition Yposition Zposition Xrotation Yrotation Zrotation
	JOINT Pelvis
	{
		OFFSET 0.000000 0.000000 0.000000
		CHANNELS 3 Xrotation Yrotation Zrotation
		JOINT LeftUpLeg
		{
			OFFSET 6.797100 -2.508499 -1.318700
			CHANNELS 3 Xrotation Yrotation Zrotation
			JOINT LeftLeg
			{
				OFFSET 0.069008 -29.241863 0.690200
				CHANNELS 3 Xrotation Yrotation Zrotation
				JOINT LeftFoot
				{
					OFFSET -0.069008 -29.568123 -0.266800
					CHANNELS 3 Xrotation Yrotation Zrotation
					JOINT LeftToeBase
					{
						OFFSET 3.145500 -8.631000 16.059900
						CHANNELS 3 Xrotation Yrotation Zrotation
						End Site
						{
							OFFSET 0.000000 18.501587 0.000000
						}
					}
				}
			}
			JOINT Left_ShortSleeve
			{
				OFFSET 0.265923 -10.480953 1.153800
				CHANNELS 3 Xrotation Yrotation Zrotation
				End Site
				{
					OFFSET 1.725763 19.823879 0.000000
				}
			}
		}
		JOINT RightUpLeg
		{
			OFFSET -6.797100 -2.508499 -1.318700
			CHANNELS 3 Xrotation Yrotation Zrotation
			JOINT RightLeg
			{
				OFFSET -0.082453 -29.241932 0.688000
				CHANNELS 3 Xrotation Yrotation Zrotation
				JOINT RightFoot
				{
					OFFSET 0.082453 -29.568058 -0.264600
					CHANNELS 3 Xrotation Yrotation Zrotation
					JOINT RightToeBase
					{
						OFFSET -3.115300 -8.682800 16.113400
						CHANNELS 3 Xrotation Yrotation Zrotation
						End Site
						{
							OFFSET 0.000000 18.567114 0.000000
						}
					}
				}
			}
			JOINT Right_ShortSleeve
			{
				OFFSET -0.265923 -10.480953 1.153800
				CHANNELS 3 Xrotation Yrotation Zrotation
				End Site
				{
					OFFSET -1.725766 19.823910 0.000000
				}
			}
		}
	}
	JOINT Spine
	{
		OFFSET 0.000000 13.368103 0.470500
		CHANNELS 3 Xrotation Yrotation Zrotation
		JOINT Spine1
		{
			OFFSET 0.147000 13.837402 0.538800
			CHANNELS 3 Xrotation Yrotation Zrotation
			JOINT Spine2
			{
				OFFSET 0.168000 16.242897 -1.435500
				CHANNELS 3 Xrotation Yrotation Zrotation
				JOINT Neck
				{
					OFFSET 0.217200 18.631500 -1.679100
					CHANNELS 3 Xrotation Yrotation Zrotation
					JOINT Head
					{
						OFFSET 0.000000 6.599396 1.385900
						CHANNELS 3 Xrotation Yrotation Zrotation
						JOINT Hat
						{
							OFFSET -0.532200 27.220596 -10.096100
							CHANNELS 3 Xrotation Yrotation Zrotation
							End Site
							{
								OFFSET 0.000000 22.029861 0.000000
							}
						}
						JOINT HairD
						{
							OFFSET -10.777400 17.437393 -1.325900
							CHANNELS 3 Xrotation Yrotation Zrotation
							JOINT HairD1
							{
								OFFSET -3.290299 -11.051193 1.062200
								CHANNELS 3 Xrotation Yrotation Zrotation
								End Site
								{
									OFFSET 0.000000 11.579437 0.000000
								}
							}
						}
						JOINT HairB
						{
							OFFSET -10.777400 17.437393 1.467900
							CHANNELS 3 Xrotation Yrotation Zrotation
							JOINT HairB1
							{
								OFFSET -1.561200 -12.956299 3.590200
								CHANNELS 3 Xrotation Yrotation Zrotation
								End Site
								{
									OFFSET 0.000000 13.534866 0.000000
								}
							}
						}
						JOINT HairA
						{
							OFFSET 9.713100 17.437393 1.467900
							CHANNELS 3 Xrotation Yrotation Zrotation
							JOINT HairA1
							{
								OFFSET 1.561200 -12.956299 3.590200
								CHANNELS 3 Xrotation Yrotation Zrotation
								End Site
								{
									OFFSET 0.000000 13.534866 0.000000
								}
							}
						}
						JOINT HairC
						{
							OFFSET 9.713100 17.437393 -1.325900
							CHANNELS 3 Xrotation Yrotation Zrotation
							JOINT HairC1
							{
								OFFSET 3.290300 -11.051193 1.062200
								CHANNELS 3 Xrotation Yrotation Zrotation
								End Site
								{
									OFFSET 0.000000 11.579437 0.000000
								}
							}
						}
					}
				}
				JOINT LeftShoulder
				{
					OFFSET 5.101800 15.108002 -2.763700
					CHANNELS 3 Xrotation Yrotation Zrotation
					JOINT LeftArm
					{
						OFFSET 9.825497 2.506317 -1.597400
						CHANNELS 3 Xrotation Yrotation Zrotation
						JOINT LeftForeArm
						{
							OFFSET 21.966244 0.000000 0.000000
							CHANNELS 3 Xrotation Yrotation Zrotation
							JOINT LeftHand
							{
								OFFSET 33.879036 0.000000 0.000000
								CHANNELS 3 Xrotation Yrotation Zrotation
								JOINT LeftHandThumb1
								{
									OFFSET 6.715286 -2.359680 3.363841
									CHANNELS 3 Xrotation Yrotation Zrotation
									JOINT LeftHandThumb2
									{
										OFFSET 2.507072 -1.447464 1.447461
										CHANNELS 3 Xrotation Yrotation Zrotation
										JOINT LeftHandThumb3
										{
											OFFSET 2.898338 -1.673355 1.673357
											CHANNELS 3 Xrotation Yrotation Zrotation
											End Site
											{
												OFFSET -0.295959 3.727692 -0.131651
											}
										}
									}
								}
								JOINT LeftHandIndex1
								{
									OFFSET 14.190811 -0.254547 3.840278
									CHANNELS 3 Xrotation Yrotation Zrotation
									JOINT LeftHandIndex2
									{
										OFFSET 3.551727 0.000000 -0.000000
										CHANNELS 3 Xrotation Yrotation Zrotation
										JOINT LeftHandIndex3
										{
											OFFSET 2.894196 0.000000 0.000000
											CHANNELS 3 Xrotation Yrotation Zrotation
											End Site
											{
												OFFSET -1.000603 2.690872 0.366626
											}
										}
									}
								}
								JOINT LeftHandMiddle1
								{
									OFFSET 13.776489 0.000000 0.000000
									CHANNELS 3 Xrotation Yrotation Zrotation
									JOINT LeftHandMiddle2
									{
										OFFSET 3.438232 0.000000 0.000000
										CHANNELS 3 Xrotation Yrotation Zrotation
										JOINT LeftHandMiddle3
										{
											OFFSET 3.691551 0.000000 0.000000
											CHANNELS 3 Xrotation Yrotation Zrotation
											End Site
											{
												OFFSET -1.082298 3.499527 0.457670
											}
										}
									}
								}
								JOINT LeftHandRing1
								{
									OFFSET 13.966164 -0.268127 -3.067488
									CHANNELS 3 Xrotation Yrotation Zrotation
									JOINT LeftHandRing2
									{
										OFFSET 3.162567 0.000000 0.000000
										CHANNELS 3 Xrotation Yrotation Zrotation
										JOINT LeftHandRing3
										{
											OFFSET 3.324348 0.000000 0.000000
											CHANNELS 3 Xrotation Yrotation Zrotation
											End Site
											{
												OFFSET -0.861900 3.184998 0.405154
											}
										}
									}
								}
								JOINT LeftHandPinky1
								{
									OFFSET 13.131393 -0.168503 -5.746925
									CHANNELS 3 Xrotation Yrotation Zrotation
									JOINT LeftHandPinky2
									{
										OFFSET 2.849182 0.000000 0.000000
										CHANNELS 3 Xrotation Yrotation Zrotation
										JOINT LeftHandPinky3
										{
											OFFSET 2.805038 0.000000 0.000000
											CHANNELS 3 Xrotation Yrotation Zrotation
											End Site
											{
												OFFSET -0.882500 2.642609 0.325652
											}
										}
									}
								}
							}
							JOINT Left_Sleeve
							{
								OFFSET 6.592125 -0.646545 0.805568
								CHANNELS 3 Xrotation Yrotation Zrotation
								End Site
								{
									OFFSET -0.000179 20.275787 -0.000000
								}
							}
						}
					}
				}
				JOINT RightShoulder
				{
					OFFSET -5.731700 15.108002 -2.763700
					CHANNELS 3 Xrotation Yrotation Zrotation
					JOINT RightArm
					{
						OFFSET -9.825497 2.506317 -1.597400
						CHANNELS 3 Xrotation Yrotation Zrotation
						JOINT RightForeArm
						{
							OFFSET -21.966242 0.000000 0.000000
							CHANNELS 3 Xrotation Yrotation Zrotation
							JOINT RightHand
							{
								OFFSET -33.879032 0.000000 0.000000
								CHANNELS 3 Xrotation Yrotation Zrotation
								JOINT RightHandThumb1
								{
									OFFSET -6.715286 -2.359680 3.363841
									CHANNELS 3 Xrotation Yrotation Zrotation
									JOINT RightHandThumb2
									{
										OFFSET -2.507072 -1.447464 1.447461
										CHANNELS 3 Xrotation Yrotation Zrotation
										JOINT RightHandThumb3
										{
											OFFSET -2.898338 -1.673355 1.673357
											CHANNELS 3 Xrotation Yrotation Zrotation
											End Site
											{
												OFFSET 0.295959 3.727692 -0.131651
											}
										}
									}
								}
								JOINT RightHandIndex1
								{
									OFFSET -14.190811 -0.254547 3.840278
									CHANNELS 3 Xrotation Yrotation Zrotation
									JOINT RightHandIndex2
									{
										OFFSET -3.551727 0.000000 -0.000000
										CHANNELS 3 Xrotation Yrotation Zrotation
										JOINT RightHandIndex3
										{
											OFFSET -2.894196 0.000000 0.000000
											CHANNELS 3 Xrotation Yrotation Zrotation
											End Site
											{
												OFFSET 1.000603 2.690872 0.366626
											}
										}
									}
								}
								JOINT RightHandMiddle1
								{
									OFFSET -13.776489 0.000000 0.000000
									CHANNELS 3 Xrotation Yrotation Zrotation
									JOINT RightHandMiddle2
									{
										OFFSET -3.438232 0.000000 0.000000
										CHANNELS 3 Xrotation Yrotation Zrotation
										JOINT RightHandMiddle3
										{
											OFFSET -3.691551 0.000000 0.000000
											CHANNELS 3 Xrotation Yrotation Zrotation
											End Site
											{
												OFFSET 1.082298 3.499527 0.457670
											}
										}
									}
								}
								JOINT RightHandRing1
								{
									OFFSET -13.966164 -0.268127 -3.067488
									CHANNELS 3 Xrotation Yrotation Zrotation
									JOINT RightHandRing2
									{
										OFFSET -3.162567 0.000000 0.000000
										CHANNELS 3 Xrotation Yrotation Zrotation
										JOINT RightHandRing3
										{
											OFFSET -3.324348 0.000000 0.000000
											CHANNELS 3 Xrotation Yrotation Zrotation
											End Site
											{
												OFFSET 0.861900 3.184998 0.405154
											}
										}
									}
								}
								JOINT RightHandPinky1
								{
									OFFSET -13.131393 -0.168503 -5.746925
									CHANNELS 3 Xrotation Yrotation Zrotation
									JOINT RightHandPinky2
									{
										OFFSET -2.849182 0.000000 0.000000
										CHANNELS 3 Xrotation Yrotation Zrotation
										JOINT RightHandPinky3
										{
											OFFSET -2.805038 0.000000 0.000000
											CHANNELS 3 Xrotation Yrotation Zrotation
											End Site
											{
												OFFSET 0.882500 2.642609 0.325652
											}
										}
									}
								}
							}
							JOINT Right_Sleeve
							{
								OFFSET -6.592125 -0.646545 0.805568
								CHANNELS 3 Xrotation Yrotation Zrotation
								End Site
								{
									OFFSET 0.000179 20.275787 -0.000000
								}
							}
						}
					}
				}
				JOINT Bind_Right_JacketString
				{
					OFFSET -3.534800 11.969597 7.200700
					CHANNELS 3 Xrotation Yrotation Zrotation
					JOINT Bind_Right_JacketString1
					{
						OFFSET -0.319900 -6.102600 2.794100
						CHANNELS 3 Xrotation Yrotation Zrotation
						End Site
						{
							OFFSET 0.000000 6.719452 0.000000
						}
					}
				}
				JOINT Bind_Left_JacketString
				{
					OFFSET 2.904800 11.969597 7.200700
					CHANNELS 3 Xrotation Yrotation Zrotation
					JOINT Bind_Left_JacketString1
					{
						OFFSET 0.364800 -5.904503 3.186800
						CHANNELS 3 Xrotation Yrotation Zrotation
						End Site
						{
							OFFSET 0.000000 6.719513 0.000000
						}
					}
				}
				JOINT HairE
				{
					OFFSET 5.915200 17.612701 -11.592200
					CHANNELS 3 Xrotation Yrotation Zrotation
					JOINT HairE1
					{
						OFFSET 0.289200 -7.171898 -1.284500
						CHANNELS 3 Xrotation Yrotation Zrotation
						End Site
						{
							OFFSET 0.000000 7.291756 0.000000
						}
					}
				}
				JOINT HairF
				{
					OFFSET -0.864800 17.612701 -11.592200
					CHANNELS 3 Xrotation Yrotation Zrotation
					JOINT HairF1
					{
						OFFSET 0.000000 -14.087097 -2.127501
						CHANNELS 3 Xrotation Yrotation Zrotation
						End Site
						{
							OFFSET 0.000000 14.246841 0.000000
						}
					}
				}
				JOINT HairG
				{
					OFFSET -8.087700 17.612701 -11.592200
					CHANNELS 3 Xrotation Yrotation Zrotation
					JOINT HairG1
					{
						OFFSET -0.293600 -6.081398 -0.910100
						CHANNELS 3 Xrotation Yrotation Zrotation
						End Site
						{
							OFFSET 0.000000 6.156120 0.000000
						}
					}
				}
			}
		}
	}
	JOINT Pouch
	{
		OFFSET 0.000000 4.394501 10.847300
		CHANNELS 3 Xrotation Yrotation Zrotation
		End Site
		{
			OFFSET 0.000000 21.880577 0.000000
		}
	}
	JOINT Bag
	{
		OFFSET -13.229000 4.813004 -0.593300
		CHANNELS 3 Xrotation Yrotation Zrotation
		End Site
		{
			OFFSET 0.000000 21.880577 0.000000
		}
	}
	JOINT OccupyGuyFacialAnim_Joint
	{
		OFFSET 1.000000 -70.206398 -1.655000
		CHANNELS 3 Xrotation Yrotation Zrotation
		End Site
		{
			OFFSET 0.000000 21.880577 0.000000
		}
	}
}
MOTION
Frames: 4
Frame Time: 0.016667
4.998222 67.496582 77.334671 23.892613 24.509671 -7.381825 -0.000001 -0.000001 0.000000 -48.003645 7.552159 11.587436 51.482882 9.745798 -5.657889 -8.339053 29.050325 -2.308334 0.000001 -0.000001 -0.000000 -0.000002 -0.000003 -0.000002 -48.626278 -4.808772 -4.465254 33.874450 -6.600268 -4.453838 -6.299447 -7.037456 4.364833 -0.000000 -0.000000 0.000000 -0.000000 0.000001 0.000000 11.223050 -0.942242 2.090945 6.689008 -2.739662 0.561830 6.767270 -2.647714 0.806091 -7.061399 0.651896 3.401808 -21.911027 3.055697 1.503038 0.000002 -0.000001 0.000000 0.000002 -0.000001 0.000000 0.000002 -0.000001 0.000001 0.000002 -0.000001 -0.000000 -0.000000 -0.000001 -0.000000 0.000002 -0.000001 -0.000000 -0.000000 -0.000001 -0.000000 0.000002 -0.000001 0.000000 0.000002 -0.000001 0.000000 1.518830 -7.209059 -6.123050 -29.320906 -21.015999 -35.448467 -0.000005 -29.544950 -0.000006 -8.273326 6.667479 0.376814 -4.818359 -0.388130 0.088382 7.450115 23.644281 2.310968 -0.000000 0.000001 0.000000 1.392525 -4.289611 -18.514947 0.313193 1.891579 -18.800949 0.000003 0.000001 -0.000002 0.814285 5.226594 -29.279925 0.451076 2.256133 -22.609641 -0.000002 0.000001 -0.000003 3.703738 9.279055 -35.643820 0.291101 1.825437 -18.119669 -0.000001 -0.000001 -0.000001 -8.001709 17.864365 -33.635519 0.395799 2.118641 -21.161558 0.000000 -0.000000 0.000001 0.000001 0.000001 -0.000000 2.382982 6.831232 2.707426 -16.474821 -9.604015 53.071601 -0.000001 62.536577 0.000005 -3.641328 3.447578 -8.284708 -8.636240 11.618384 -0.482702 7.832922 -27.003879 -3.053128 0.000001 -0.000001 -0.000000 9.241552 2.976990 1.678342 0.692434 -2.445333 31.616543 -0.000003 0.000001 0.000002 0.172062 -3.349961 13.232752 0.583250 -2.258512 28.956071 0.000002 -0.000000 -0.000001 1.536022 -6.518369 24.725601 0.620953 -2.325326 29.898969 -0.000000 0.000003 -0.000001 -5.391430 -16.960671 33.120830 0.696252 -2.451516 31.705697 0.000003 -0.000003 -0.000002 -0.000002 -0.000001 -0.000001 0.000001 0.000001 -0.000001 0.000000 -0.000001 0.000000 0.000001 0.000001 -0.000001 0.000001 0.000001 -0.000001 0.000001 0.000001 -0.000001 0.000000 -0.000001 0.000001 0.000001 0.000001 -0.000001 0.000001 0.000001 -0.000001 0.000001 0.000001 -0.000001 0.000000 -0.000001 0.000001 -0.000001 -0.000001 0.000000 -0.000001 -0.000001 0.000000 -0.000001 -0.000001 0.000000 
5.189538 68.188950 78.404396 24.091235 25.321810 -7.688832 -0.000000 0.000000 0.000000 -47.876033 7.707752 10.565265 46.840788 9.480049 -5.588683 -4.980483 29.712935 -3.291622 -0.000001 0.000001 -0.000001 0.000001 -0.000002 -0.000002 -45.760717 -5.046673 -4.275771 30.684458 -6.484207 -4.451969 -5.970370 -7.939332 4.283716 -0.000000 0.000000 -0.000000 -0.000001 -0.000000 -0.000000 10.989355 -0.446657 2.050747 6.739196 -2.514403 0.541698 6.813281 -2.447946 0.778875 -6.528703 0.281440 2.942688 -23.266324 1.506231 1.300734 0.000003 0.000000 0.000000 0.000003 0.000000 0.000000 0.000003 0.000000 0.000000 0.000003 0.000000 -0.000000 0.000001 0.000000 0.000000 0.000003 0.000000 -0.000000 0.000001 0.000000 0.000000 0.000003 0.000000 0.000000 0.000003 0.000000 0.000000 1.571521 -7.049211 -6.199187 -27.840548 -21.494296 -35.479479 0.000007 -28.581680 0.000006 -5.965536 5.303741 -2.777246 -4.821591 -0.408749 0.104050 7.450114 23.644276 2.310965 0.000000 -0.000000 -0.000002 1.410552 -4.236778 -19.058289 0.332463 1.947230 -19.376241 0.000002 -0.000001 -0.000000 0.825878 5.247077 -29.510485 0.442716 2.235961 -22.396303 0.000000 0.000000 -0.000001 3.686994 9.272130 -35.517568 0.258877 1.723913 -17.079327 0.000000 0.000000 0.000002 -8.021495 17.813861 -33.080259 0.333925 1.951380 -19.419169 -0.000000 0.000000 0.000001 0.000001 -0.000001 0.000003 2.412588 6.644253 2.840667 -17.278015 -10.440143 53.740079 -0.000006 64.466904 -0.000016 -4.319500 3.303182 -8.566020 -8.559261 11.392677 -0.383836 7.832918 -27.003875 -3.053130 -0.000001 0.000002 0.000003 9.265298 2.897263 4.050166 0.831886 -2.658363 34.747754 -0.000003 -0.000001 0.000004 0.218726 -3.531519 15.536821 0.689719 -2.440924 31.552687 0.000002 -0.000002 -0.000001 1.695766 -6.638545 26.794596 0.720459 -2.490239 32.267289 0.000001 0.000002 0.000001 -5.286607 -17.043267 35.032389 0.792359 -2.600550 33.886331 -0.000004 0.000001 0.000002 -0.000001 -0.000001 -0.000000 -0.000001 0.000002 -0.000001 -0.000001 -0.000001 0.000001 -0.000001 0.000002 -0.000001 -0.000001 0.000002 -0.000001 -0.000001 0.000002 -0.000001 -0.000001 -0.000001 0.000001 -0.000001 0.000002 -0.000001 -0.000001 0.000002 -0.000001 -0.000001 0.000002 -0.000001 -0.000001 -0.000001 0.000001 -0.000000 0.000000 0.000000 -0.000000 0.000000 0.000000 -0.000000 0.000000 0.000000 
5.357627 68.734154 79.487244 24.253430 26.174402 -8.016191 -0.000000 -0.000001 -0.000000 -47.541381 7.774310 9.819186 42.214496 10.004700 -5.569288 -0.860200 30.086007 -5.499350 0.000000 -0.000001 0.000000 0.000002 -0.000001 -0.000000 -43.183659 -5.435720 -4.076184 28.062867 -6.291800 -4.445188 -5.906948 -8.827397 4.139911 -0.000000 0.000000 -0.000000 0.000001 -0.000000 -0.000000 10.740819 0.064108 2.053628 6.787116 -2.287297 0.523225 6.856955 -2.249062 0.744092 -6.145218 0.029303 2.502975 -24.587528 -0.208408 0.944948 -0.000000 -0.000001 0.000000 -0.000000 -0.000001 0.000000 -0.000000 -0.000001 0.000000 -0.000000 -0.000001 -0.000000 -0.000002 -0.000000 0.000000 -0.000000 -0.000001 -0.000000 -0.000002 -0.000000 0.000000 -0.000000 -0.000001 0.000000 -0.000000 -0.000001 0.000000 1.618582 -6.835511 -6.264188 -26.441494 -21.915705 -35.489646 -0.000002 -27.829485 0.000007 -4.158947 3.707702 -5.268072 -4.822754 -0.415832 0.109418 7.450115 23.644281 2.310964 0.000001 0.000001 -0.000003 1.429684 -4.182418 -19.619259 0.359072 2.021267 -20.144846 0.000001 0.000002 -0.000002 0.838481 5.269143 -29.759370 0.446234 2.244495 -22.486520 0.000000 0.000002 -0.000001 3.688295 9.275082 -35.508620 0.236545 1.649487 -16.320406 -0.000003 0.000000 -0.000003 -8.038783 17.773826 -32.635610 0.284470 1.805058 -17.910380 0.000000 -0.000000 0.000003 -0.000000 -0.000001 -0.000003 2.446326 6.435829 2.980742 -17.981426 -11.167561 54.420591 0.000030 66.639506 -0.000042 -4.845009 3.164063 -9.542834 -8.466642 11.117451 -0.246937 7.832918 -27.003875 -3.053133 0.000001 0.000000 -0.000005 9.295347 2.878052 6.343591 0.977314 -2.856421 37.770342 0.000000 0.000004 -0.000003 0.270625 -3.704764 17.759743 0.799800 -2.611575 34.049927 -0.000002 -0.000001 0.000003 1.852707 -6.746796 28.783486 0.815894 -2.635200 34.401586 0.000002 -0.000003 0.000001 -5.180595 -17.111984 36.727334 0.873726 -2.717619 35.639698 0.000001 -0.000001 0.000000 0.000003 -0.000002 0.000003 -0.000002 -0.000001 -0.000000 -0.000002 -0.000001 -0.000000 -0.000002 -0.000001 -0.000001 -0.000002 -0.000001 -0.000001 -0.000002 -0.000001 -0.000000 -0.000002 -0.000001 -0.000000 -0.000002 -0.000001 -0.000001 -0.000002 -0.000001 -0.000001 -0.000002 -0.000001 -0.000000 -0.000002 -0.000001 -0.000000 -0.000000 -0.000001 -0.000000 -0.000000 -0.000001 -0.000000 -0.000000 -0.000001 -0.000000 
5.530763 69.130470 80.468239 24.350048 27.059232 -8.401126 0.000001 0.000001 -0.000001 -47.292879 7.830448 9.193046 37.628052 9.886369 -5.463838 3.479303 30.019877 -8.333906 0.000001 0.000000 -0.000000 0.000002 0.000002 0.000000 -40.967813 -5.948688 -3.875336 26.078490 -6.010879 -4.432870 -6.047343 -9.727727 4.001261 0.000000 0.000000 -0.000000 0.000001 0.000002 0.000001 10.478241 0.594019 2.078446 6.831991 -2.056074 0.504970 6.898570 -2.042593 0.728342 -5.916543 -0.334472 1.914442 -25.874862 -1.918012 0.673789 0.000001 -0.000001 0.000000 0.000001 -0.000001 0.000000 0.000001 -0.000001 0.000001 0.000001 -0.000001 -0.000000 0.000000 -0.000002 0.000000 0.000001 -0.000001 -0.000000 0.000000 -0.000002 0.000000 0.000001 -0.000001 0.000000 0.000001 -0.000001 0.000000 1.646198 -6.617211 -6.320246 -25.016650 -22.020555 -35.430240 0.000001 -27.294800 0.000011 -2.639176 2.137417 -7.461860 -4.821881 -0.409581 0.104689 7.450114 23.644281 2.310964 -0.000001 -0.000001 -0.000001 1.449927 -4.126680 -20.196343 0.393223 2.111962 -21.091674 0.000001 0.000001 0.000000 0.852130 5.292782 -30.026686 0.460314 2.278164 -22.843161 0.000001 0.000001 0.000001 3.705311 9.286583 -35.601835 0.223620 1.604728 -15.865457 -0.000001 0.000001 -0.000001 -8.053282 17.745685 -32.316569 0.246341 1.682585 -16.657563 0.000000 0.000000 0.000001 0.000000 0.000000 0.000005 2.483077 6.243165 3.110970 -18.599626 -11.797028 55.140435 -0.000087 68.895353 0.000109 -5.221346 2.918431 -10.687404 -8.360210 10.798193 -0.075888 7.832916 -27.003873 -3.053130 -0.000000 -0.000001 0.000001 9.320957 2.929879 8.482608 1.121867 -3.033565 40.583085 0.000000 0.000001 -0.000001 0.324901 -3.863882 19.826975 0.908252 -2.765111 36.361909 0.000006 -0.000001 -0.000001 2.000289 -6.840033 30.623501 0.900141 -2.754075 36.193309 0.000003 -0.000001 0.000001 -5.078688 -17.159252 38.110946 0.930539 -2.795068 36.821079 0.000002 0.000002 0.000001 -0.000001 -0.000002 0.000001 -0.000002 0.000001 -0.000000 -0.000002 0.000001 -0.000000 -0.000002 0.000001 -0.000001 -0.000002 0.000001 -0.000001 -0.000002 0.000001 -0.000000 -0.000002 0.000001 0.000000 -0.000002 0.000001 -0.000001 -0.000002 0.000001 -0.000001 -0.000002 0.000001 -0.000000 -0.000002 0.000001 0.000000 0.000001 0.000001 -0.000001 0.000001 0.000001 -0.000001 0.000001 0.000001 -0.000001 
